<svg width="512" height="512" viewBox="0 0 512 512" fill="none" xmlns="http://www.w3.org/2000/svg">
<g clip-path="url(#clip0)">
<path d="M499 146.987C496.105 136.094 490.401 126.153 482.457 118.158C474.513 110.163 464.608 104.395 453.735 101.43C413.706 90.6667 253.706 90.6667 253.706 90.6667C253.706 90.6667 93.7056 90.6667 53.6765 101.43C42.8027 104.395 32.8983 110.163 24.9544 118.158C17.0104 126.153 11.3057 136.094 8.41102 146.987C-2.29443 187.19 -2.29443 271.03 -2.29443 271.03C-2.29443 271.03 -2.29443 354.87 8.41102 395.074C11.3057 405.967 17.0104 415.908 24.9544 423.903C32.8983 431.898 42.8027 437.666 53.6765 440.63C93.7056 451.394 253.706 451.394 253.706 451.394C253.706 451.394 413.706 451.394 453.735 440.63C464.608 437.666 474.513 431.898 482.457 423.903C490.401 415.908 496.105 405.967 499 395.074C509.706 354.87 509.706 271.03 509.706 271.03C509.706 271.03 509.706 187.19 499 146.987ZM201.342 347.161V194.899L335.16 271.03L201.342 347.161Z" fill="white"/>
</g>
<defs>
<clipPath id="clip0">
<rect width="512" height="512" fill="white"/>
</clipPath>
</defs>
</svg>
