<svg id="Logo" xmlns="http://www.w3.org/2000/svg" viewBox="0 0 512 512"><defs><style>.cls-1{fill:#fff;filter:drop-shadow(10px 10px 5px #000);}</style></defs><title>logo-twitter-white</title><path class="cls-1" d="M161,464.05C354.24,464.05,459.9,304,459.9,165.18q0-6.83-.3-13.58A213.88,213.88,0,0,0,512,97.21a209.69,209.69,0,0,1-60.32,16.53,105.47,105.47,0,0,0,46.19-58.1,210.65,210.65,0,0,1-66.7,25.49,105.15,105.15,0,0,0-179,95.8A298.17,298.17,0,0,1,35.64,67.18,105.13,105.13,0,0,0,68.15,207.42a104.32,104.32,0,0,1-47.57-13.14c0,.44,0,.88,0,1.34a105.09,105.09,0,0,0,84.28,103,104.68,104.68,0,0,1-47.44,1.8,105.17,105.17,0,0,0,98.13,73,210.76,210.76,0,0,1-130.46,45A213.75,213.75,0,0,1,0,416.87a297.41,297.41,0,0,0,161,47.18"/></svg>