<svg id="Logo" xmlns="http://www.w3.org/2000/svg" viewBox="0 0 512 512"><defs><style>.cls-1{fill:#fff;}</style></defs><title>logo-instagram-white</title><path class="cls-1" d="M256,46.13c68.36,0,76.45.26,103.45,1.49,25,1.14,38.51,5.31,47.53,8.81a79.52,79.52,0,0,1,29.44,19.15A79.52,79.52,0,0,1,455.57,105c3.5,9,7.67,22.57,8.81,47.53,1.23,27,1.49,35.09,1.49,103.45s-.26,76.45-1.49,103.45c-1.14,25-5.31,38.51-8.81,47.53A84.76,84.76,0,0,1,407,455.57c-9,3.5-22.57,7.67-47.53,8.81-27,1.23-35.09,1.49-103.45,1.49s-76.46-.26-103.45-1.49c-25-1.14-38.51-5.31-47.53-8.81a79.52,79.52,0,0,1-29.44-19.15A79.52,79.52,0,0,1,56.43,407c-3.5-9-7.67-22.57-8.81-47.53-1.23-27-1.49-35.09-1.49-103.45s.26-76.45,1.49-103.45c1.14-25,5.31-38.51,8.81-47.53A79.52,79.52,0,0,1,75.58,75.58,79.52,79.52,0,0,1,105,56.43c9-3.5,22.57-7.67,47.53-8.81,27-1.23,35.09-1.49,103.45-1.49M256,0c-69.53,0-78.24.29-105.55,1.54s-45.86,5.57-62.14,11.9A125.5,125.5,0,0,0,43,43,125.5,125.5,0,0,0,13.44,88.31C7.11,104.59,2.78,123.2,1.54,150.45S0,186.47,0,256s.29,78.24,1.54,105.55,5.57,45.86,11.9,62.14A125.5,125.5,0,0,0,43,469a125.5,125.5,0,0,0,45.34,29.53c16.28,6.33,34.89,10.66,62.14,11.9S186.47,512,256,512s78.24-.29,105.55-1.54,45.86-5.57,62.14-11.9a130.94,130.94,0,0,0,74.87-74.87c6.33-16.28,10.66-34.89,11.9-62.14S512,325.53,512,256s-.29-78.24-1.54-105.55-5.57-45.86-11.9-62.14A125.5,125.5,0,0,0,469,43a125.5,125.5,0,0,0-45.34-29.53C407.41,7.11,388.8,2.78,361.55,1.54S325.53,0,256,0Z"/><path class="cls-1" d="M256,124.54A131.46,131.46,0,1,0,387.46,256,131.46,131.46,0,0,0,256,124.54Zm0,216.79A85.33,85.33,0,1,1,341.33,256,85.33,85.33,0,0,1,256,341.33Z"/><circle class="cls-1" cx="392.65" cy="119.35" r="30.72"/></svg>