<svg width="512" height="512" viewBox="0 0 512 512" fill="none" xmlns="http://www.w3.org/2000/svg">
<path d="M409.756 0H102.244C45.7764 0 0 45.7764 0 102.244V409.756C0 466.224 45.7764 512 102.244 512H409.756C466.224 512 512 466.224 512 409.756V102.244C512 45.7764 466.224 0 409.756 0Z" fill="white"/>
<path d="M344.209 415.483H290.258C241.646 415.483 205.408 390.487 205.408 330.633V234.929H161.286V183.064C209.898 170.443 230.191 128.619 232.56 92.416H283.011V174.65H341.84V234.929H283.011V318.188C283.011 343.184 295.597 351.845 315.713 351.845H344.209V415.483Z" fill="black"/>
</svg>
